<mxfile host="app.diagrams.net" modified="2023-06-12T19:56:12.496Z" agent="Mozilla/5.0 (Windows NT 10.0; Win64; x64) AppleWebKit/537.36 (KHTML, like Gecko) Chrome/114.0.0.0 Safari/537.36" etag="qasklLWpBMb-RbNE1ehu" version="21.3.8" type="device">
  <diagram name="Page-1" id="mfpMRLxhOkNZ_YUZovEA">
    <mxGraphModel dx="3725" dy="1373" grid="1" gridSize="10" guides="1" tooltips="1" connect="1" arrows="1" fold="1" page="1" pageScale="1" pageWidth="1100" pageHeight="850" math="0" shadow="0">
      <root>
        <mxCell id="0" />
        <mxCell id="1" parent="0" />
        <mxCell id="VkfNkk22ph1RqWk2mNfj-1" value="Title" style="ellipse;whiteSpace=wrap;html=1;strokeColor=#D0CEE2;fontColor=#1A1A1A;fillColor=#FAD9D5;fontSize=20;fontStyle=3" parent="1" vertex="1">
          <mxGeometry x="40" y="70" width="130" height="50" as="geometry" />
        </mxCell>
        <mxCell id="VkfNkk22ph1RqWk2mNfj-3" value="Books" style="rounded=0;whiteSpace=wrap;html=1;strokeColor=#996185;fillColor=#e6d0de;gradientColor=#d5739d;fontSize=30;fontStyle=1" parent="1" vertex="1">
          <mxGeometry x="130" y="220" width="170" height="80" as="geometry" />
        </mxCell>
        <mxCell id="VkfNkk22ph1RqWk2mNfj-4" value="" style="endArrow=none;html=1;rounded=0;strokeColor=#09555B;fontColor=#1A1A1A;entryX=0.5;entryY=1;entryDx=0;entryDy=0;exitX=0.5;exitY=0;exitDx=0;exitDy=0;" parent="1" source="VkfNkk22ph1RqWk2mNfj-3" target="VkfNkk22ph1RqWk2mNfj-1" edge="1">
          <mxGeometry width="50" height="50" relative="1" as="geometry">
            <mxPoint x="230" y="220" as="sourcePoint" />
            <mxPoint x="120" y="110" as="targetPoint" />
          </mxGeometry>
        </mxCell>
        <mxCell id="VkfNkk22ph1RqWk2mNfj-5" value="Price" style="ellipse;whiteSpace=wrap;html=1;strokeColor=#D0CEE2;fontColor=#1A1A1A;fillColor=#FAD9D5;fontSize=20;fontStyle=3" parent="1" vertex="1">
          <mxGeometry x="270" y="425" width="120" height="50" as="geometry" />
        </mxCell>
        <mxCell id="VkfNkk22ph1RqWk2mNfj-8" value="Book_Status" style="ellipse;whiteSpace=wrap;html=1;strokeColor=#D0CEE2;fontColor=#1A1A1A;fillColor=#FAD9D5;fontStyle=3;fontSize=20;" parent="1" vertex="1">
          <mxGeometry x="430" y="365" width="150" height="70" as="geometry" />
        </mxCell>
        <mxCell id="VkfNkk22ph1RqWk2mNfj-10" value="BookID" style="ellipse;whiteSpace=wrap;html=1;strokeColor=#D0CEE2;fontColor=#1A1A1A;fillColor=#FAD9D5;fontStyle=7;fontSize=20;" parent="1" vertex="1">
          <mxGeometry y="390" width="120" height="50" as="geometry" />
        </mxCell>
        <mxCell id="VkfNkk22ph1RqWk2mNfj-11" value="" style="endArrow=none;html=1;rounded=0;strokeColor=#09555B;fontColor=#1A1A1A;entryX=0.346;entryY=1.015;entryDx=0;entryDy=0;entryPerimeter=0;exitX=0.5;exitY=0;exitDx=0;exitDy=0;" parent="1" source="VkfNkk22ph1RqWk2mNfj-10" target="VkfNkk22ph1RqWk2mNfj-3" edge="1">
          <mxGeometry width="50" height="50" relative="1" as="geometry">
            <mxPoint x="90" y="200" as="sourcePoint" />
            <mxPoint x="180" y="225" as="targetPoint" />
          </mxGeometry>
        </mxCell>
        <mxCell id="VkfNkk22ph1RqWk2mNfj-14" value="" style="endArrow=none;html=1;rounded=0;strokeColor=#09555B;fontColor=#1A1A1A;entryX=0.045;entryY=0.323;entryDx=0;entryDy=0;exitX=1;exitY=1;exitDx=0;exitDy=0;entryPerimeter=0;" parent="1" source="VkfNkk22ph1RqWk2mNfj-3" target="VkfNkk22ph1RqWk2mNfj-8" edge="1">
          <mxGeometry width="50" height="50" relative="1" as="geometry">
            <mxPoint x="300" y="230" as="sourcePoint" />
            <mxPoint x="350" y="180" as="targetPoint" />
          </mxGeometry>
        </mxCell>
        <mxCell id="VkfNkk22ph1RqWk2mNfj-17" value="Author" style="ellipse;whiteSpace=wrap;html=1;strokeColor=#D0CEE2;fontColor=#1A1A1A;fillColor=#FAD9D5;fontSize=20;fontStyle=3" parent="1" vertex="1">
          <mxGeometry x="300" y="55" width="100" height="70" as="geometry" />
        </mxCell>
        <mxCell id="VkfNkk22ph1RqWk2mNfj-18" value="" style="endArrow=none;html=1;rounded=0;strokeColor=#09555B;fontColor=#1A1A1A;entryX=0.5;entryY=1;entryDx=0;entryDy=0;exitX=0.633;exitY=0.015;exitDx=0;exitDy=0;exitPerimeter=0;" parent="1" source="VkfNkk22ph1RqWk2mNfj-3" target="VkfNkk22ph1RqWk2mNfj-17" edge="1">
          <mxGeometry width="50" height="50" relative="1" as="geometry">
            <mxPoint x="250" y="220" as="sourcePoint" />
            <mxPoint x="280" y="170" as="targetPoint" />
          </mxGeometry>
        </mxCell>
        <mxCell id="VkfNkk22ph1RqWk2mNfj-20" value="Published by" style="rhombus;whiteSpace=wrap;html=1;strokeColor=#6c8ebf;fillColor=#dae8fc;fontStyle=1;fontSize=28;gradientColor=#7ea6e0;" parent="1" vertex="1">
          <mxGeometry x="470" y="140" width="320" height="240" as="geometry" />
        </mxCell>
        <mxCell id="VkfNkk22ph1RqWk2mNfj-23" value="Publisher" style="rounded=0;whiteSpace=wrap;html=1;strokeColor=#996185;fillColor=#e6d0de;gradientColor=#d5739d;fontSize=30;fontStyle=1" parent="1" vertex="1">
          <mxGeometry x="860" y="220" width="200" height="80" as="geometry" />
        </mxCell>
        <mxCell id="VkfNkk22ph1RqWk2mNfj-24" value="" style="endArrow=none;html=1;rounded=0;strokeColor=#09555B;fontColor=#1A1A1A;entryX=0;entryY=0.5;entryDx=0;entryDy=0;exitX=1;exitY=0.5;exitDx=0;exitDy=0;" parent="1" source="VkfNkk22ph1RqWk2mNfj-3" target="VkfNkk22ph1RqWk2mNfj-20" edge="1">
          <mxGeometry width="50" height="50" relative="1" as="geometry">
            <mxPoint x="300" y="265" as="sourcePoint" />
            <mxPoint x="350" y="210" as="targetPoint" />
          </mxGeometry>
        </mxCell>
        <mxCell id="VkfNkk22ph1RqWk2mNfj-25" value="" style="endArrow=none;html=1;rounded=0;strokeColor=#09555B;fontColor=#1A1A1A;entryX=0;entryY=0.5;entryDx=0;entryDy=0;exitX=1;exitY=0.5;exitDx=0;exitDy=0;" parent="1" source="VkfNkk22ph1RqWk2mNfj-20" target="VkfNkk22ph1RqWk2mNfj-23" edge="1">
          <mxGeometry width="50" height="50" relative="1" as="geometry">
            <mxPoint x="710" y="265" as="sourcePoint" />
            <mxPoint x="760" y="220" as="targetPoint" />
          </mxGeometry>
        </mxCell>
        <mxCell id="VkfNkk22ph1RqWk2mNfj-27" value="PubID" style="ellipse;whiteSpace=wrap;html=1;strokeColor=#D0CEE2;fontColor=#1A1A1A;fillColor=#FAD9D5;fontSize=20;fontStyle=7" parent="1" vertex="1">
          <mxGeometry x="910" y="70" width="120" height="80" as="geometry" />
        </mxCell>
        <mxCell id="VkfNkk22ph1RqWk2mNfj-28" value="Address" style="ellipse;whiteSpace=wrap;html=1;strokeColor=#D0CEE2;fontColor=#1A1A1A;fillColor=#FAD9D5;fontSize=20;fontStyle=3" parent="1" vertex="1">
          <mxGeometry x="700" y="350" width="140" height="70" as="geometry" />
        </mxCell>
        <mxCell id="VkfNkk22ph1RqWk2mNfj-29" value="Name" style="ellipse;whiteSpace=wrap;html=1;strokeColor=#D0CEE2;fontColor=#1A1A1A;fillColor=#FAD9D5;fontSize=20;fontStyle=3" parent="1" vertex="1">
          <mxGeometry x="950" y="415" width="120" height="60" as="geometry" />
        </mxCell>
        <mxCell id="VkfNkk22ph1RqWk2mNfj-30" value="" style="endArrow=none;html=1;rounded=0;strokeColor=#09555B;fontColor=#1A1A1A;exitX=0.5;exitY=1;exitDx=0;exitDy=0;entryX=0.5;entryY=0;entryDx=0;entryDy=0;" parent="1" source="VkfNkk22ph1RqWk2mNfj-23" target="VkfNkk22ph1RqWk2mNfj-29" edge="1">
          <mxGeometry width="50" height="50" relative="1" as="geometry">
            <mxPoint x="950" y="200" as="sourcePoint" />
            <mxPoint x="1000" y="150" as="targetPoint" />
          </mxGeometry>
        </mxCell>
        <mxCell id="VkfNkk22ph1RqWk2mNfj-31" value="" style="endArrow=none;html=1;rounded=0;strokeColor=#09555B;fontColor=#1A1A1A;entryX=0.5;entryY=0;entryDx=0;entryDy=0;exitX=0.25;exitY=1;exitDx=0;exitDy=0;" parent="1" source="VkfNkk22ph1RqWk2mNfj-23" target="VkfNkk22ph1RqWk2mNfj-28" edge="1">
          <mxGeometry width="50" height="50" relative="1" as="geometry">
            <mxPoint x="940" y="220" as="sourcePoint" />
            <mxPoint x="990" y="170" as="targetPoint" />
          </mxGeometry>
        </mxCell>
        <mxCell id="VkfNkk22ph1RqWk2mNfj-32" value="" style="endArrow=none;html=1;rounded=0;strokeColor=#09555B;fontColor=#1A1A1A;entryX=0.5;entryY=1;entryDx=0;entryDy=0;exitX=0.5;exitY=0;exitDx=0;exitDy=0;" parent="1" source="VkfNkk22ph1RqWk2mNfj-23" target="VkfNkk22ph1RqWk2mNfj-27" edge="1">
          <mxGeometry width="50" height="50" relative="1" as="geometry">
            <mxPoint x="870" y="220" as="sourcePoint" />
            <mxPoint x="920" y="170" as="targetPoint" />
          </mxGeometry>
        </mxCell>
        <mxCell id="VkfNkk22ph1RqWk2mNfj-34" value="" style="endArrow=none;html=1;rounded=0;strokeColor=#09555B;fontColor=#1A1A1A;exitX=0.5;exitY=0;exitDx=0;exitDy=0;entryX=0.5;entryY=1;entryDx=0;entryDy=0;" parent="1" source="VkfNkk22ph1RqWk2mNfj-36" target="VkfNkk22ph1RqWk2mNfj-3" edge="1">
          <mxGeometry width="50" height="50" relative="1" as="geometry">
            <mxPoint x="220" y="500" as="sourcePoint" />
            <mxPoint x="220" y="300" as="targetPoint" />
          </mxGeometry>
        </mxCell>
        <mxCell id="VkfNkk22ph1RqWk2mNfj-36" value="Borrowed by" style="rhombus;whiteSpace=wrap;html=1;strokeColor=#6c8ebf;fillColor=#dae8fc;gradientColor=#7ea6e0;fontSize=28;fontStyle=1" parent="1" vertex="1">
          <mxGeometry x="45" y="880" width="340" height="240" as="geometry" />
        </mxCell>
        <mxCell id="VkfNkk22ph1RqWk2mNfj-37" value="Due_Date" style="ellipse;whiteSpace=wrap;html=1;strokeColor=#D0CEE2;fontColor=#1A1A1A;fillColor=#FAD9D5;fontStyle=3;fontSize=20;" parent="1" vertex="1">
          <mxGeometry x="620" y="772.5" width="185" height="80" as="geometry" />
        </mxCell>
        <mxCell id="VkfNkk22ph1RqWk2mNfj-39" value="" style="endArrow=none;html=1;rounded=0;strokeColor=#09555B;fontColor=#1A1A1A;entryX=1;entryY=0.5;entryDx=0;entryDy=0;exitX=0;exitY=0.5;exitDx=0;exitDy=0;" parent="1" source="VkfNkk22ph1RqWk2mNfj-40" target="VkfNkk22ph1RqWk2mNfj-36" edge="1">
          <mxGeometry width="50" height="50" relative="1" as="geometry">
            <mxPoint x="770" y="1170" as="sourcePoint" />
            <mxPoint x="230" y="1050" as="targetPoint" />
          </mxGeometry>
        </mxCell>
        <mxCell id="VkfNkk22ph1RqWk2mNfj-40" value="Return_Date" style="ellipse;whiteSpace=wrap;html=1;strokeColor=#D0CEE2;fontColor=#1A1A1A;fillColor=#FAD9D5;fontSize=20;fontStyle=3" parent="1" vertex="1">
          <mxGeometry x="760" y="1130" width="190" height="90" as="geometry" />
        </mxCell>
        <mxCell id="VkfNkk22ph1RqWk2mNfj-41" value="" style="endArrow=none;html=1;rounded=0;strokeColor=#09555B;fontColor=#1A1A1A;entryX=1;entryY=0.5;entryDx=0;entryDy=0;exitX=0;exitY=0.5;exitDx=0;exitDy=0;" parent="1" source="VkfNkk22ph1RqWk2mNfj-37" target="VkfNkk22ph1RqWk2mNfj-36" edge="1">
          <mxGeometry width="50" height="50" relative="1" as="geometry">
            <mxPoint x="660" y="880" as="sourcePoint" />
            <mxPoint x="220" y="600" as="targetPoint" />
          </mxGeometry>
        </mxCell>
        <mxCell id="VkfNkk22ph1RqWk2mNfj-44" value="" style="endArrow=none;html=1;rounded=0;strokeColor=#09555B;fontColor=#1A1A1A;exitX=1;exitY=0.5;exitDx=0;exitDy=0;entryX=0;entryY=0.5;entryDx=0;entryDy=0;" parent="1" source="VkfNkk22ph1RqWk2mNfj-36" target="VkfNkk22ph1RqWk2mNfj-45" edge="1">
          <mxGeometry width="50" height="50" relative="1" as="geometry">
            <mxPoint x="220" y="720" as="sourcePoint" />
            <mxPoint x="700" y="1000" as="targetPoint" />
          </mxGeometry>
        </mxCell>
        <mxCell id="VkfNkk22ph1RqWk2mNfj-45" value="Issue_Date" style="ellipse;whiteSpace=wrap;html=1;strokeColor=#D0CEE2;fontColor=#1A1A1A;fillColor=#FAD9D5;fontStyle=3;fontSize=20;" parent="1" vertex="1">
          <mxGeometry x="670" y="952.5" width="170" height="80" as="geometry" />
        </mxCell>
        <mxCell id="VkfNkk22ph1RqWk2mNfj-47" value="Member" style="rounded=0;whiteSpace=wrap;html=1;strokeColor=#996185;fillColor=#e6d0de;gradientColor=#d5739d;fontStyle=1;fontSize=30;" parent="1" vertex="1">
          <mxGeometry x="-600" y="957.5" width="230" height="85" as="geometry" />
        </mxCell>
        <mxCell id="VkfNkk22ph1RqWk2mNfj-49" value="Expiry_Date" style="ellipse;whiteSpace=wrap;html=1;strokeColor=#D0CEE2;fontColor=#1A1A1A;fillColor=#FAD9D5;fontStyle=3;fontSize=20;" parent="1" vertex="1">
          <mxGeometry x="-480" y="1320" width="175" height="70" as="geometry" />
        </mxCell>
        <mxCell id="VkfNkk22ph1RqWk2mNfj-50" value="Name" style="ellipse;whiteSpace=wrap;html=1;strokeColor=#D0CEE2;fontColor=#1A1A1A;fillColor=#FAD9D5;fontStyle=3;fontSize=20;" parent="1" vertex="1">
          <mxGeometry x="-630" y="775" width="200" height="75" as="geometry" />
        </mxCell>
        <mxCell id="VkfNkk22ph1RqWk2mNfj-51" value="Memb_Type" style="ellipse;whiteSpace=wrap;html=1;strokeColor=#D0CEE2;fontColor=#1A1A1A;fillColor=#FAD9D5;fontStyle=3;fontSize=20;" parent="1" vertex="1">
          <mxGeometry x="-880" y="1170" width="180" height="80" as="geometry" />
        </mxCell>
        <mxCell id="VkfNkk22ph1RqWk2mNfj-52" value="Memb_Date" style="ellipse;whiteSpace=wrap;html=1;strokeColor=#D0CEE2;fontColor=#1A1A1A;fillColor=#FAD9D5;fontStyle=3;fontSize=20;" parent="1" vertex="1">
          <mxGeometry x="-645" y="1200" width="190" height="80" as="geometry" />
        </mxCell>
        <mxCell id="VkfNkk22ph1RqWk2mNfj-53" value="Address" style="ellipse;whiteSpace=wrap;html=1;strokeColor=#D0CEE2;fontColor=#1A1A1A;fillColor=#FAD9D5;fontStyle=3;fontSize=20;" parent="1" vertex="1">
          <mxGeometry x="-300" y="1130" width="200" height="110" as="geometry" />
        </mxCell>
        <mxCell id="VkfNkk22ph1RqWk2mNfj-54" value="&lt;u&gt;MembID&lt;/u&gt;" style="ellipse;whiteSpace=wrap;html=1;strokeColor=#D0CEE2;fontColor=#1A1A1A;fillColor=#FAD9D5;fontStyle=3;fontSize=20;" parent="1" vertex="1">
          <mxGeometry x="-430" y="720" width="160" height="80" as="geometry" />
        </mxCell>
        <mxCell id="VkfNkk22ph1RqWk2mNfj-58" value="" style="endArrow=none;html=1;rounded=0;strokeColor=#09555B;fontColor=#1A1A1A;entryX=0.5;entryY=0;entryDx=0;entryDy=0;exitX=0.25;exitY=1;exitDx=0;exitDy=0;" parent="1" source="VkfNkk22ph1RqWk2mNfj-47" target="VkfNkk22ph1RqWk2mNfj-52" edge="1">
          <mxGeometry width="50" height="50" relative="1" as="geometry">
            <mxPoint x="-530" y="1030" as="sourcePoint" />
            <mxPoint x="-470" y="580" as="targetPoint" />
            <Array as="points" />
          </mxGeometry>
        </mxCell>
        <mxCell id="VkfNkk22ph1RqWk2mNfj-64" value="" style="endArrow=none;html=1;rounded=0;strokeColor=#09555B;fontColor=#1A1A1A;entryX=0.5;entryY=1;entryDx=0;entryDy=0;" parent="1" source="VkfNkk22ph1RqWk2mNfj-47" target="VkfNkk22ph1RqWk2mNfj-50" edge="1">
          <mxGeometry width="50" height="50" relative="1" as="geometry">
            <mxPoint x="-320" y="460" as="sourcePoint" />
            <mxPoint x="250" y="650" as="targetPoint" />
          </mxGeometry>
        </mxCell>
        <mxCell id="VkfNkk22ph1RqWk2mNfj-66" value="" style="endArrow=none;html=1;rounded=0;strokeColor=#09555B;fontColor=#1A1A1A;exitX=0.75;exitY=1;exitDx=0;exitDy=0;entryX=0;entryY=0.5;entryDx=0;entryDy=0;" parent="1" source="VkfNkk22ph1RqWk2mNfj-47" target="VkfNkk22ph1RqWk2mNfj-53" edge="1">
          <mxGeometry width="50" height="50" relative="1" as="geometry">
            <mxPoint x="-200" y="580" as="sourcePoint" />
            <mxPoint x="-140" y="670" as="targetPoint" />
          </mxGeometry>
        </mxCell>
        <mxCell id="VkfNkk22ph1RqWk2mNfj-68" value="" style="endArrow=none;html=1;rounded=0;strokeColor=#09555B;fontColor=#1A1A1A;exitX=0.5;exitY=0;exitDx=0;exitDy=0;entryX=0.37;entryY=0.992;entryDx=0;entryDy=0;entryPerimeter=0;" parent="1" source="VkfNkk22ph1RqWk2mNfj-49" target="VkfNkk22ph1RqWk2mNfj-47" edge="1">
          <mxGeometry width="50" height="50" relative="1" as="geometry">
            <mxPoint x="200" y="700" as="sourcePoint" />
            <mxPoint x="-480" y="1020" as="targetPoint" />
          </mxGeometry>
        </mxCell>
        <mxCell id="VkfNkk22ph1RqWk2mNfj-70" value="" style="endArrow=none;html=1;rounded=0;strokeColor=#09555B;fontColor=#1A1A1A;exitX=0.5;exitY=1;exitDx=0;exitDy=0;entryX=0.648;entryY=0;entryDx=0;entryDy=0;entryPerimeter=0;" parent="1" source="VkfNkk22ph1RqWk2mNfj-54" target="VkfNkk22ph1RqWk2mNfj-47" edge="1">
          <mxGeometry width="50" height="50" relative="1" as="geometry">
            <mxPoint x="200" y="700" as="sourcePoint" />
            <mxPoint x="-400" y="960" as="targetPoint" />
          </mxGeometry>
        </mxCell>
        <mxCell id="VkfNkk22ph1RqWk2mNfj-74" value="Issue/&lt;br style=&quot;font-size: 28px;&quot;&gt;Receive" style="rhombus;whiteSpace=wrap;html=1;strokeColor=#6c8ebf;fillColor=#dae8fc;gradientColor=#7ea6e0;fontStyle=1;fontSize=28;" parent="1" vertex="1">
          <mxGeometry x="-520" y="150" width="380" height="220" as="geometry" />
        </mxCell>
        <mxCell id="VkfNkk22ph1RqWk2mNfj-75" value="Staff" style="rounded=0;whiteSpace=wrap;html=1;strokeColor=#996185;fillColor=#e6d0de;gradientColor=#d5739d;fontSize=30;fontStyle=1" parent="1" vertex="1">
          <mxGeometry x="-1000" y="220" width="210" height="80" as="geometry" />
        </mxCell>
        <mxCell id="VkfNkk22ph1RqWk2mNfj-76" value="" style="endArrow=none;html=1;rounded=0;strokeColor=#09555B;fontColor=#1A1A1A;entryX=1;entryY=0.5;entryDx=0;entryDy=0;exitX=0;exitY=0.5;exitDx=0;exitDy=0;" parent="1" source="VkfNkk22ph1RqWk2mNfj-3" target="VkfNkk22ph1RqWk2mNfj-74" edge="1">
          <mxGeometry width="50" height="50" relative="1" as="geometry">
            <mxPoint x="380" y="470" as="sourcePoint" />
            <mxPoint x="430" y="420" as="targetPoint" />
          </mxGeometry>
        </mxCell>
        <mxCell id="VkfNkk22ph1RqWk2mNfj-79" value="" style="endArrow=none;html=1;rounded=0;strokeColor=#09555B;fontColor=#1A1A1A;entryX=0;entryY=0.5;entryDx=0;entryDy=0;exitX=1;exitY=0.5;exitDx=0;exitDy=0;" parent="1" source="VkfNkk22ph1RqWk2mNfj-75" target="VkfNkk22ph1RqWk2mNfj-74" edge="1">
          <mxGeometry width="50" height="50" relative="1" as="geometry">
            <mxPoint x="150" y="330" as="sourcePoint" />
            <mxPoint x="200" y="280" as="targetPoint" />
          </mxGeometry>
        </mxCell>
        <mxCell id="VkfNkk22ph1RqWk2mNfj-80" value="Name" style="ellipse;whiteSpace=wrap;html=1;strokeColor=#D0CEE2;fontColor=#1A1A1A;fillColor=#FAD9D5;fontSize=20;fontStyle=3" parent="1" vertex="1">
          <mxGeometry x="-1080" y="65" width="160" height="60" as="geometry" />
        </mxCell>
        <mxCell id="VkfNkk22ph1RqWk2mNfj-82" value="StaffID" style="ellipse;whiteSpace=wrap;html=1;strokeColor=#ae4132;fillColor=#fad9d5;fontStyle=7;fontSize=20;" parent="1" vertex="1">
          <mxGeometry x="-870" y="40" width="190" height="70" as="geometry" />
        </mxCell>
        <mxCell id="VkfNkk22ph1RqWk2mNfj-83" value="Address" style="ellipse;whiteSpace=wrap;html=1;strokeColor=#D0CEE2;fontColor=#1A1A1A;fillColor=#FAD9D5;fontStyle=3;fontSize=20;" parent="1" vertex="1">
          <mxGeometry x="-1090" y="360" width="180" height="80" as="geometry" />
        </mxCell>
        <mxCell id="VkfNkk22ph1RqWk2mNfj-84" value="Contact_No." style="ellipse;whiteSpace=wrap;html=1;strokeColor=#D0CEE2;fontColor=#1A1A1A;fillColor=#FAD9D5;fontStyle=3;fontSize=20;" parent="1" vertex="1">
          <mxGeometry x="-805" y="383" width="160" height="85" as="geometry" />
        </mxCell>
        <mxCell id="VkfNkk22ph1RqWk2mNfj-85" value="" style="endArrow=none;html=1;rounded=0;strokeColor=#09555B;fontColor=#1A1A1A;exitX=0.25;exitY=0;exitDx=0;exitDy=0;entryX=0.5;entryY=1;entryDx=0;entryDy=0;" parent="1" source="VkfNkk22ph1RqWk2mNfj-75" target="VkfNkk22ph1RqWk2mNfj-80" edge="1">
          <mxGeometry width="50" height="50" relative="1" as="geometry">
            <mxPoint x="-50" y="330" as="sourcePoint" />
            <mxPoint x="-1000" y="120" as="targetPoint" />
          </mxGeometry>
        </mxCell>
        <mxCell id="VkfNkk22ph1RqWk2mNfj-86" value="" style="endArrow=none;html=1;rounded=0;strokeColor=#09555B;fontColor=#1A1A1A;entryX=0.5;entryY=1;entryDx=0;entryDy=0;exitX=0.5;exitY=0;exitDx=0;exitDy=0;" parent="1" source="VkfNkk22ph1RqWk2mNfj-75" target="VkfNkk22ph1RqWk2mNfj-82" edge="1">
          <mxGeometry width="50" height="50" relative="1" as="geometry">
            <mxPoint x="-50" y="330" as="sourcePoint" />
            <mxPoint y="280" as="targetPoint" />
          </mxGeometry>
        </mxCell>
        <mxCell id="VkfNkk22ph1RqWk2mNfj-87" value="" style="endArrow=none;html=1;rounded=0;strokeColor=#09555B;fontColor=#1A1A1A;entryX=0.25;entryY=1;entryDx=0;entryDy=0;exitX=0.5;exitY=0;exitDx=0;exitDy=0;" parent="1" source="VkfNkk22ph1RqWk2mNfj-83" target="VkfNkk22ph1RqWk2mNfj-75" edge="1">
          <mxGeometry width="50" height="50" relative="1" as="geometry">
            <mxPoint x="-50" y="330" as="sourcePoint" />
            <mxPoint y="280" as="targetPoint" />
          </mxGeometry>
        </mxCell>
        <mxCell id="VkfNkk22ph1RqWk2mNfj-88" value="" style="endArrow=none;html=1;rounded=0;strokeColor=#09555B;fontColor=#1A1A1A;entryX=0.825;entryY=0.992;entryDx=0;entryDy=0;exitX=0.289;exitY=0.071;exitDx=0;exitDy=0;entryPerimeter=0;exitPerimeter=0;" parent="1" source="VkfNkk22ph1RqWk2mNfj-84" target="VkfNkk22ph1RqWk2mNfj-75" edge="1">
          <mxGeometry width="50" height="50" relative="1" as="geometry">
            <mxPoint x="-50" y="330" as="sourcePoint" />
            <mxPoint y="280" as="targetPoint" />
          </mxGeometry>
        </mxCell>
        <mxCell id="VkfNkk22ph1RqWk2mNfj-90" value="Contact_No." style="ellipse;whiteSpace=wrap;html=1;strokeColor=#D0CEE2;fontColor=#1A1A1A;fillColor=#FAD9D5;fontStyle=3;fontSize=20;" parent="1" vertex="1">
          <mxGeometry x="-270" y="1270" width="210" height="90" as="geometry" />
        </mxCell>
        <mxCell id="VkfNkk22ph1RqWk2mNfj-93" value="" style="endArrow=none;html=1;rounded=0;strokeColor=#09555B;fontColor=#1A1A1A;exitX=0.374;exitY=-0.012;exitDx=0;exitDy=0;exitPerimeter=0;entryX=0.5;entryY=1;entryDx=0;entryDy=0;" parent="1" source="VkfNkk22ph1RqWk2mNfj-90" target="VkfNkk22ph1RqWk2mNfj-47" edge="1">
          <mxGeometry width="50" height="50" relative="1" as="geometry">
            <mxPoint x="190" y="840" as="sourcePoint" />
            <mxPoint x="-430" y="1030" as="targetPoint" />
          </mxGeometry>
        </mxCell>
        <mxCell id="VkfNkk22ph1RqWk2mNfj-97" value="" style="endArrow=none;html=1;rounded=0;strokeColor=#09555B;fontColor=#1A1A1A;entryX=0.617;entryY=-0.025;entryDx=0;entryDy=0;entryPerimeter=0;exitX=0;exitY=1;exitDx=0;exitDy=0;" parent="1" source="VkfNkk22ph1RqWk2mNfj-47" target="VkfNkk22ph1RqWk2mNfj-51" edge="1">
          <mxGeometry width="50" height="50" relative="1" as="geometry">
            <mxPoint x="-560" y="1030" as="sourcePoint" />
            <mxPoint x="-60" y="800" as="targetPoint" />
          </mxGeometry>
        </mxCell>
        <mxCell id="VkfNkk22ph1RqWk2mNfj-98" value="" style="endArrow=none;html=1;rounded=0;strokeColor=#09555B;fontColor=#1A1A1A;entryX=0;entryY=0.5;entryDx=0;entryDy=0;exitX=1;exitY=0.5;exitDx=0;exitDy=0;" parent="1" source="VkfNkk22ph1RqWk2mNfj-47" target="VkfNkk22ph1RqWk2mNfj-36" edge="1">
          <mxGeometry width="50" height="50" relative="1" as="geometry">
            <mxPoint x="-350" y="1000" as="sourcePoint" />
            <mxPoint x="-60" y="740" as="targetPoint" />
          </mxGeometry>
        </mxCell>
        <mxCell id="VkfNkk22ph1RqWk2mNfj-100" style="edgeStyle=orthogonalEdgeStyle;rounded=0;orthogonalLoop=1;jettySize=auto;html=1;exitX=0.5;exitY=1;exitDx=0;exitDy=0;strokeColor=#09555B;fontColor=#1A1A1A;" parent="1" source="VkfNkk22ph1RqWk2mNfj-49" target="VkfNkk22ph1RqWk2mNfj-49" edge="1">
          <mxGeometry relative="1" as="geometry" />
        </mxCell>
        <mxCell id="VkfNkk22ph1RqWk2mNfj-101" value="" style="endArrow=none;html=1;rounded=0;strokeColor=#09555B;fontColor=#1A1A1A;entryX=0.5;entryY=1;entryDx=0;entryDy=0;exitX=0.5;exitY=0;exitDx=0;exitDy=0;" parent="1" source="VkfNkk22ph1RqWk2mNfj-102" target="VkfNkk22ph1RqWk2mNfj-75" edge="1">
          <mxGeometry width="50" height="50" relative="1" as="geometry">
            <mxPoint x="-890" y="630" as="sourcePoint" />
            <mxPoint x="10" y="520" as="targetPoint" />
          </mxGeometry>
        </mxCell>
        <mxCell id="VkfNkk22ph1RqWk2mNfj-102" value="Send/&lt;br style=&quot;font-size: 28px;&quot;&gt;Request" style="rhombus;whiteSpace=wrap;html=1;strokeColor=#6c8ebf;fillColor=#dae8fc;gradientColor=#7ea6e0;fontSize=28;fontStyle=1" parent="1" vertex="1">
          <mxGeometry x="-1061.25" y="610" width="332.5" height="250" as="geometry" />
        </mxCell>
        <mxCell id="VkfNkk22ph1RqWk2mNfj-103" value="" style="endArrow=none;html=1;rounded=0;strokeColor=#09555B;fontColor=#1A1A1A;entryX=0.5;entryY=1;entryDx=0;entryDy=0;exitX=0;exitY=0.5;exitDx=0;exitDy=0;" parent="1" source="VkfNkk22ph1RqWk2mNfj-47" target="VkfNkk22ph1RqWk2mNfj-102" edge="1">
          <mxGeometry width="50" height="50" relative="1" as="geometry">
            <mxPoint x="-590" y="990" as="sourcePoint" />
            <mxPoint x="-660" y="870" as="targetPoint" />
            <Array as="points">
              <mxPoint x="-895" y="1000" />
            </Array>
          </mxGeometry>
        </mxCell>
        <mxCell id="VkfNkk22ph1RqWk2mNfj-104" value="" style="endArrow=none;html=1;rounded=0;strokeColor=#09555B;fontColor=#1A1A1A;entryX=0.75;entryY=1;entryDx=0;entryDy=0;exitX=0.5;exitY=0;exitDx=0;exitDy=0;" parent="1" source="VkfNkk22ph1RqWk2mNfj-5" target="VkfNkk22ph1RqWk2mNfj-3" edge="1">
          <mxGeometry width="50" height="50" relative="1" as="geometry">
            <mxPoint x="10" y="230" as="sourcePoint" />
            <mxPoint x="60" y="180" as="targetPoint" />
          </mxGeometry>
        </mxCell>
        <mxCell id="TagREZj7Yr-HaZZ7WEfY-1" value="Contact_No." style="ellipse;whiteSpace=wrap;html=1;strokeColor=#D0CEE2;fontColor=#1A1A1A;fillColor=#FAD9D5;fontStyle=3;fontSize=20;" parent="1" vertex="1">
          <mxGeometry x="750" y="480" width="180" height="90" as="geometry" />
        </mxCell>
        <mxCell id="TagREZj7Yr-HaZZ7WEfY-2" value="" style="endArrow=none;html=1;rounded=0;strokeColor=#09555B;fontColor=#1A1A1A;entryX=0.405;entryY=1.037;entryDx=0;entryDy=0;entryPerimeter=0;exitX=0.5;exitY=0;exitDx=0;exitDy=0;" parent="1" source="TagREZj7Yr-HaZZ7WEfY-1" target="VkfNkk22ph1RqWk2mNfj-23" edge="1">
          <mxGeometry width="50" height="50" relative="1" as="geometry">
            <mxPoint x="-30" y="290" as="sourcePoint" />
            <mxPoint x="20" y="240" as="targetPoint" />
          </mxGeometry>
        </mxCell>
      </root>
    </mxGraphModel>
  </diagram>
</mxfile>
